<svg xmlns="http://www.w3.org/2000/svg" width="745" height="185" fill="none"><path fill="#000" d="M547.879 97.075l22.846 83.188h20.549v-4.653c-.016-.071-1.26-.299-1.402-.341a11.443 11.443 0 01-1.428-.522c-.912-.409-1.666-.954-2.395-1.629-1.488-1.378-2.843-2.915-3.897-4.649-1.734-2.852-2.6-6.137-3.6-9.284a435.251 435.251 0 01-2.145-6.977 893.924 893.924 0 01-2.398-8.151c-.855-2.958-1.7-5.919-2.537-8.881-.863-3.054-1.718-6.111-2.567-9.169a3075.845 3075.845 0 01-6.774-24.799c-.528-1.962-1.055-3.925-1.579-5.888l-.209-.782c10.482-4.302 18.052-14.514 21.138-25.112 2.52-8.651 2.874-17.786 2.527-26.786-.417-10.818-2.129-22.313-9.291-30.46C566.71 3.075 553.648.21 541.492.04c-12.156-.168-25.358.25-36.426.164l.07 4.88c6.715.086 8.887 1.132 10.964 5.005 2.076 3.873 2.124 8.467 2.123 12.857l-.016 134.63c-.001 4.377-.05 8.957-2.119 12.82-2.069 3.863-7.306 7.141-11.378 5.485-.04 1.62.038 2.761-.003 4.38l39.753-.021.016-4.616c-4.298 1.405-9.038-1.628-11.096-5.638-2.058-4.009-2.104-8.706-2.105-13.209l-.018-60.568c5.297.447 11.252 1.16 16.622.866zm-14.377-8.815a35.017 35.017 0 00-2.248-.063V9.726c2.82-.229 15.288.044 17.923.044 5.95 0 10.731 3.387 14.342 10.16 3.611 6.771 5.416 20.712 5.416 31.53 0 11.076-2.237 20.19-6.71 27.346-4.474 7.156-18.345 9.518-27.156 9.518-.409 0-.931-.02-1.567-.064zM378.274 180.263l29.283-153.19v123.581c0 9.569-.499 15.698-1.498 18.384-1.591 4.364-4.361 6.547-8.312 6.547h-3.269v4.658h39.241v-4.701l-3.202.043c-3.635 0-6.292-1.763-7.972-5.289-1.272-2.601-1.907-9.148-1.907-19.642V29.59c0-9.57.5-15.695 1.498-18.383 1.636-4.364 4.429-6.547 8.381-6.547h3.202V0h-27.942l-27.121 141.183L347.412.019H321.25v4.66c3.77 0 6.507.817 8.21 2.454 1.704 1.637 2.872 3.674 3.508 6.107.908 3.358 1.363 8.813 1.363 16.37v121.062c0 9.57-.501 15.699-1.498 18.385-1.635 4.364-4.407 6.547-8.312 6.547h-3.27v4.658h32.157v-4.658h-3.27c-3.634 0-6.291-1.763-7.971-5.289-1.226-2.601-1.84-9.148-1.84-19.643V27.092l35.7 153.17h2.247v.001zM181.936 30.35c0-8.395.272-13.957.817-16.687.545-2.726 1.52-4.763 2.929-6.107 1.952-1.93 4.019-2.896 6.199-2.896h3.339V0h-39.582v4.66h3.269c2.181 0 4.269 1.007 6.268 3.021 1.407 1.511 2.339 3.317 2.794 5.415.589 2.77.885 8.521.885 17.253v119.69c0 10.244-.546 16.708-1.635 19.393-1.727 4.114-4.497 6.171-8.312 6.171h-3.269v4.659h39.582v-4.659h-3.339c-2.179 0-4.247-1.008-6.199-3.022-1.453-1.511-2.407-3.316-2.861-5.415-.592-2.771-.886-8.478-.886-17.126V93.596h41.568v56.444c0 10.244-.568 16.707-1.703 19.392-1.726 4.115-4.474 6.172-8.242 6.172h-3.271v4.659h39.514v-4.659h-3.269c-2.181 0-4.27-1.008-6.268-3.022-1.408-1.512-2.34-3.316-2.793-5.415-.59-2.771-.886-8.479-.886-17.127V30.35c0-8.395.26-13.957.784-16.687.522-2.726 1.51-4.763 2.963-6.107 1.953-1.93 4.019-2.896 6.2-2.896h3.269V0h-39.514v4.66h3.271c2.179 0 4.245 1.007 6.199 3.021 1.453 1.511 2.406 3.317 2.861 5.415.591 2.77.886 8.521.886 17.253v53.927h-41.568V30.35zM150.021 20.674a53.965 53.965 0 00-1.382-3.177c-1.928-4.065-4.581-7.87-8.176-10.599C131.503.096 117.608 0 106.83 0H72.832v4.66h3.488c3.512 0 6.157 1.847 7.936 5.54 1.23 2.604 1.847 9.279 1.847 20.023V150.04c0 9.741-.457 15.91-1.369 18.511-1.688 4.704-4.492 7.053-8.414 7.053h-3.488v4.659h39.743v-4.659h-3.557c-3.511 0-6.134-1.846-7.867-5.542-1.277-2.601-1.916-9.276-1.916-20.022V95.862c2.964 1.178 5.747 2.06 8.346 2.646 2.6.587 5.016.882 7.251.882 7.488 0 15.436-1.645 22.205-4.834 4.643-2.187 8.575-5.421 11.297-9.773 5.944-9.505 6.667-21.6 6.667-32.492.001-10.686-1-21.618-4.98-31.617zm-13.445 60.222a18.352 18.352 0 01-1.365 1.549c-4.193 4.268-10.158 6.62-16.186 7.706-3.106.56-6.219.794-9.38.581-1.055-.07-10.41-1.087-10.41-2.046 0 0 0-76.062.002-76.093.013-.953 7.404-1.947 8.333-2.038 2.903-.284 5.853-.174 8.741.194 3.641.465 7.363.946 10.731 2.381 2.589 1.103 4.809 2.776 6.629 4.794 8.868 9.834 8.71 24.821 8.71 36.887 0 5.117-.702 10.024-1.528 15.036-.676 4.1-1.699 7.764-4.277 11.049z"/><path fill="#000" d="M671.349 169.878c-2.108-3.399-3.708-10.805-6.291-22.217L641.752 0h-14.914l-26.711 146.15c-2.812 12.336-4.1 20.518-6.412 24.546-1.133 2.014-1.721 3.65-5.573 4.91v4.657h29.03v-4.657c-4.442-.587-7.332-1.868-8.669-3.841-1.337-1.97-2.641-4.257-2.641-6.86 0-3.273.136-8.223 1.677-14.853l5.619-31.371h31.711l5.971 28.584c1.812 7.974 2.323 14.201 2.323 17.893 0 2.769-.646 5.12-1.938 7.049-1.293 1.932-3.774 3.064-7.445 3.399v4.657h36.722v-4.582c-3.761-.419-7.046-2.406-9.153-5.803zm-56.56-59.874l15.483-85.062 13.462 85.062h-28.945z"/><path fill="#000" d="M742.304 142.958c-.921 8.939-1.94 15.082-3.058 18.424-1.118 3.342-2.773 5.891-4.965 7.646-1.754 1.253-4.844 1.88-9.272 1.88h-23.426l.143-137.782c0-10.16.35-16.582 1.051-19.27.702-2.688 2.007-4.914 3.914-6.677s5.227-2.601 9.961-2.519V0H674.77v4.661h4.86c3.376 0 5.919 1.848 7.628 5.542 1.227 2.688 1.698 20.521 1.698 20.521v119.88c0 10.779-.569 17.422-1.709 19.928-1.579 3.341-4.172 5.147-7.854 5.147l-1.27-.001v4.585h66.713v-37.305h-2.532zM65.71 142.972c-.956 8.935-2.013 15.075-3.175 18.416-1.16 3.34-2.88 5.889-5.156 7.643-1.821 1.253-5.03 1.88-9.627 1.88H26.576v-77.14h14.208c5.682 0 10.432 2.48 12.6 7.908 1.32 3.306 1.674 6.934 1.945 10.451h2.526V66.89H55.33c-.142 5.01-.567 10.05-3.655 14.244-2.66 3.612-6.791 3.49-10.89 3.49h-14.21V9.27h21.177c4.598 0 7.806.626 9.628 1.88 2.276 1.754 3.995 4.302 5.156 7.642 1.16 3.341 2.218 9.482 3.175 18.417h2.663L68.34 0H.217v4.636h3.278c3.824 0 6.554 1.672 8.194 5.012 1.183 2.505 1.774 9.146 1.774 19.92v121.047c0 10.775-.59 17.415-1.774 19.92-1.64 3.34-4.37 5.012-8.194 5.012H.217v4.716H68.34v-37.29h-2.63v-.001zM314.766 142.972c-.956 8.935-2.013 15.075-3.174 18.416-1.162 3.34-2.881 5.889-5.156 7.643-1.822 1.253-5.031 1.88-9.628 1.88h-21.176v-77.14h14.208c5.682 0 10.432 2.48 12.6 7.908 1.321 3.306 1.674 6.934 1.945 10.451h2.527V66.89h-2.527c-.142 5.01-.567 10.05-3.655 14.244-2.661 3.612-6.791 3.49-10.891 3.49h-14.208V9.27h21.176c4.598 0 7.806.626 9.628 1.88 2.276 1.754 3.995 4.302 5.156 7.642 1.161 3.341 2.218 9.482 3.175 18.417h2.663L317.396 0h-68.123v4.636h3.278c3.824 0 6.555 1.672 8.194 5.012 1.183 2.505 1.775 9.146 1.775 19.92v121.047c0 10.775-.592 17.415-1.775 19.92-1.639 3.34-4.37 5.012-8.194 5.012h-3.278v4.716h68.123v-37.29h-2.63v-.001zM498.852 142.972c-.957 8.935-2.014 15.075-3.175 18.416-1.161 3.34-2.88 5.889-5.156 7.643-1.822 1.253-5.03 1.88-9.628 1.88h-21.176v-77.14h14.208c5.683 0 10.433 2.48 12.601 7.908 1.32 3.306 1.673 6.934 1.945 10.451h2.526V66.89h-2.526c-.142 5.01-.568 10.05-3.656 14.244-2.66 3.612-6.791 3.49-10.89 3.49h-14.208V9.27h21.176c4.598 0 7.806.626 9.627 1.88 2.276 1.754 3.995 4.302 5.156 7.642 1.162 3.341 2.219 9.482 3.175 18.417h2.663L501.482 0h-68.124v4.636h3.279c3.823 0 6.554 1.672 8.193 5.012 1.184 2.505 1.775 9.146 1.775 19.92v121.047c0 10.775-.591 17.415-1.775 19.92-1.639 3.34-4.369 5.012-8.193 5.012h-3.279v4.716h68.124v-37.29h-2.63v-.001z"/></svg>